<?xml version="1.0" standalone="no"?>
<!DOCTYPE svg PUBLIC "-//W3C//DTD SVG 20010904//EN"
 "http://www.w3.org/TR/2001/REC-SVG-20010904/DTD/svg10.dtd">
<svg version="1.0" xmlns="http://www.w3.org/2000/svg"
 width="900.000000pt" height="900.000000pt" viewBox="0 0 900.000000 900.000000"
 preserveAspectRatio="xMidYMid meet">
<metadata>
Created by potrace 1.10, written by Peter Selinger 2001-2011
</metadata>
<g transform="translate(0.000000,900.000000) scale(0.100000,-0.100000)"
fill="#a3a3a3" stroke="none">
<path d="M89 7869 c-11 -7 -6 -14 186 -245 82 -99 168 -202 190 -229 22 -27
79 -95 126 -150 47 -55 89 -107 95 -116 5 -9 30 -41 55 -70 46 -53 496 -596
541 -653 13 -16 35 -43 49 -60 15 -17 46 -53 69 -81 23 -27 52 -61 64 -75 11
-14 39 -48 61 -75 22 -28 50 -61 61 -75 12 -14 81 -97 154 -185 73 -88 147
-178 165 -200 19 -22 84 -101 146 -175 61 -74 128 -155 149 -180 21 -25 95
-115 166 -200 70 -85 191 -231 269 -325 297 -359 296 -357 282 -374 -42 -50
-202 -237 -207 -241 -4 -3 -91 -104 -195 -225 -104 -121 -195 -224 -201 -230
-6 -5 -53 -59 -105 -120 -51 -60 -108 -126 -125 -145 -18 -19 -42 -48 -55 -64
-13 -16 -33 -38 -45 -50 -11 -11 -180 -205 -376 -431 -195 -225 -367 -422
-381 -437 -14 -15 -32 -37 -40 -48 -8 -11 -34 -42 -58 -68 -25 -26 -103 -114
-174 -197 -71 -82 -132 -152 -135 -155 -3 -3 -78 -88 -165 -190 -155 -179
-345 -398 -409 -470 -17 -20 -62 -70 -99 -113 -46 -51 -64 -79 -55 -82 7 -3
1991 -4 4408 -3 l4395 3 0 3365 0 3365 -4398 5 c-2420 3 -4403 2 -4408 -1z
m7521 -3379 l0 -1920 -2040 0 -2040 0 0 1920 0 1920 2040 0 2040 0 0 -1920z"/>
<path d="M4820 5869 c0 -8 31 -43 69 -79 38 -36 120 -114 183 -174 62 -60 156
-150 208 -200 52 -50 192 -183 309 -296 263 -252 433 -414 529 -505 40 -38 71
-75 70 -83 -4 -19 -949 -962 -964 -962 -7 0 -78 60 -157 133 -79 72 -162 149
-185 170 -23 21 -42 46 -42 56 0 11 38 52 88 97 48 43 110 99 137 125 28 25
97 88 155 140 57 52 126 114 153 139 l49 45 -188 180 c-103 99 -195 187 -204
195 -9 8 -70 67 -136 130 -65 63 -222 214 -349 335 -126 121 -273 261 -325
311 -52 51 -112 108 -133 128 -67 64 -67 64 -67 -186 0 -123 -5 -727 -11
-1342 -8 -920 -8 -1121 3 -1127 7 -5 691 -9 1520 -9 1425 0 1508 1 1516 18 6
9 13 416 16 947 4 512 11 1121 17 1355 8 372 7 426 -6 436 -10 8 -267 13 -847
18 -458 3 -962 9 -1120 13 -243 5 -288 4 -288 -8z"/>
</g>
</svg>
